<svg width="196" height="58" viewBox="0 0 196 58" xmlns:xlink="http://www.w3.org/1999/xlink" xmlns="http://www.w3.org/2000/svg"><clipPath id="p.0"><path d="m0 0l960.0 0l0 720.0l-960.0 0l0 -720.0z" clip-rule="nonzero"/></clipPath><g clip-path="url(#p.0)"><path fill="#000000" fill-opacity="0.0" d="m0 0l960.0 0l0 720.0l-960.0 0z" fill-rule="evenodd"/><path fill="#1d90c5" d="m0.0131233595 135.97375l245.19685 0l0 67.87401l-245.19685 0z" fill-rule="evenodd"/><path fill="#ffffff" d="m71.96625 172.42062q-0.59375 -1.640625 -1.171875 -3.421875q-0.578125 -1.78125 -1.21875 -3.8125q-0.640625 -2.046875 -0.875 -2.8125q-1.921875 6.046875 -3.53125 10.0q2.5625 0.078125 3.921875 0.078125q2.078125 0 2.875 -0.03125zm-3.71875 3.0q-1.03125 0 -4.3125 -0.09375q-2.609375 6.6875 -3.203125 8.890625q-3.5625 -0.40625 -3.5625 -1.640625q0 -0.5625 1.703125 -4.53125q1.703125 -3.984375 4.140625 -10.140625q2.4375 -6.171875 3.84375 -10.9375q0.796875 -0.109375 2.078125 -0.109375q1.03125 0 1.609375 0.421875q0.59375 0.40625 1.03125 1.6875q3.078125 9.609375 4.484375 13.203125q3.0 7.796875 4.515625 10.796875q-1.515625 0.8125 -2.5625 0.8125q-1.6875 0 -2.3125 -1.09375q-0.484375 -1.234375 -1.34375 -3.65625q-0.859375 -2.421875 -1.34375 -3.703125q-3.921875 0.09375 -4.765625 0.09375zm22.373108 -8.53125q-1.84375 0 -4.203125 1.796875q0.03125 1.53125 0.046875 6.609375q0.03125 5.078125 0.265625 8.0q-1.078125 0.15625 -2.0 0.15625q-2.59375 0 -2.59375 -1.59375q0 -0.28125 0.046875 -1.953125q0.0625 -1.6875 0.109375 -5.125q0.046875 -3.453125 0.046875 -7.96875q0 -9.4375 -0.359375 -12.953125q1.109375 -0.203125 2.078125 -0.203125q2.828125 0 2.828125 2.203125q0 0.359375 -0.09375 1.703125q-0.09375 1.328125 -0.21875 3.546875q-0.125 2.21875 -0.125 4.703125q2.640625 -1.84375 5.359375 -1.84375q2.8125 0 4.265625 1.5q1.453125 1.5 1.453125 3.703125q0 2.28125 -1.5 4.125q-1.5 1.84375 -4.140625 2.28125q1.484375 2.5625 2.890625 3.953125q1.15625 1.125 1.953125 1.125q0.796875 0 1.5625 -0.234375q0.4375 1.0 0.4375 1.515625q0 0.921875 -0.984375 1.390625q-0.96875 0.453125 -2.40625 0.453125q-1.640625 0 -3.125 -1.6875q-2.125 -2.4375 -4.125 -6.953125q-0.671875 -0.28125 -0.671875 -1.078125q0 -0.53125 0.28125 -1.28125q0.828125 0.234375 1.796875 0.234375q1.75 0 2.765625 -1.03125q1.03125 -1.046875 1.03125 -2.40625q0 -1.125 -0.703125 -1.90625q-0.703125 -0.78125 -1.96875 -0.78125zm10.985611 -2.46875q0.359375 -0.046875 1.8125 -0.046875q-0.078125 -2.359375 -0.25 -4.046875q0.84375 -0.15625 1.96875 -0.15625q2.75 0 2.75 1.484375q0 0.953125 -0.109375 2.765625q4.3125 0 6.0 -0.25q0.234375 0.4375 0.234375 1.25q0 1.078125 -0.484375 1.453125q-0.46875 0.375 -1.515625 0.421875q-1.203125 0.03125 -4.3125 0.03125q-0.09375 3.765625 -0.09375 8.125q0 1.28125 0.078125 2.125q0.09375 0.84375 0.375 1.6875q0.28125 0.828125 0.828125 1.25q0.5625 0.421875 1.453125 0.421875q1.234375 0 2.546875 -1.40625q1.046875 1.15625 1.046875 1.96875q0 1.15625 -1.1875 1.71875q-1.171875 0.5625 -2.65625 0.5625q-6.671875 0 -6.671875 -7.28125q0 -1.890625 0.015625 -5.21875q0.015625 -3.34375 0.015625 -3.984375q-2.5625 0.15625 -3.640625 0.3125q-0.15625 -0.4375 -0.15625 -1.3125q0 -1.046875 0.453125 -1.40625q0.46875 -0.359375 1.5 -0.46875zm17.56749 -0.171875q2.875 0 2.875 2.125q0 0.234375 -0.125 1.625q-0.109375 1.375 -0.21875 3.421875q-0.09375 2.03125 -0.09375 3.875q0 5.359375 1.046875 7.796875q-1.0 0.4375 -2.28125 0.4375q-1.765625 0 -2.390625 -0.71875q-0.609375 -0.71875 -0.609375 -2.4375q0 -0.640625 0.03125 -3.09375q0.046875 -2.46875 0.046875 -3.78125q0 -5.8125 -0.359375 -9.078125q0.953125 -0.171875 2.078125 -0.171875zm0.203125 -1.671875q-1.203125 0 -2.046875 -0.796875q-0.84375 -0.8125 -0.84375 -2.046875q0 -1.203125 0.875 -2.015625q0.890625 -0.828125 2.09375 -0.828125q1.15625 0 2.0 0.828125q0.84375 0.8125 0.84375 2.015625q0 1.203125 -0.890625 2.03125q-0.875 0.8125 -2.03125 0.8125zm20.319366 10.875q0 -3.3125 -1.1875 -4.9375q-1.171875 -1.625 -2.9375 -1.625q-2.3125 0 -4.3125 2.0q0.03125 2.40625 0.03125 5.328125q0 2.71875 -0.109375 4.671875q1.90625 1.921875 4.234375 1.921875q2.15625 0 3.21875 -2.15625q1.0625 -2.15625 1.0625 -5.203125zm-2.6875 -9.484375q3.125 0 5.078125 2.34375q1.96875 2.34375 1.96875 7.015625q0 4.40625 -2.328125 7.4375q-2.3125 3.015625 -6.671875 3.015625q-4.765625 0 -8.15625 -2.8125q0.28125 -2.359375 0.28125 -8.515625q0 -3.5625 -0.203125 -10.34375q-0.203125 -6.78125 -0.4375 -8.296875q0.75 -0.15625 2.109375 -0.15625q2.796875 0 2.796875 2.15625q0 0.484375 -0.125 3.484375q-0.109375 3.0 -0.109375 6.765625q2.5625 -2.09375 5.796875 -2.09375zm17.286224 11.53125q-1.078125 0 -2.921875 -0.078125q0.40625 2.828125 1.8125 4.15625q1.421875 1.3125 3.5 1.3125q1.09375 0 2.25 -0.546875q1.15625 -0.5625 1.71875 -1.609375q1.953125 1.046875 1.953125 2.234375q0 1.359375 -1.875 2.09375q-1.875 0.71875 -4.203125 0.71875q-3.75 0 -6.703125 -2.484375q-2.9375 -2.484375 -2.9375 -7.15625q0 -4.921875 2.8125 -7.546875q2.828125 -2.625 6.671875 -2.625q3.078125 0 4.96875 1.6875q1.90625 1.671875 1.90625 4.0q0 1.875 -0.703125 3.09375q-0.6875 1.21875 -2.046875 1.78125q-1.359375 0.5625 -2.765625 0.765625q-1.40625 0.203125 -3.4375 0.203125zm1.71875 -8.609375q-1.875 0 -3.203125 1.453125q-1.3125 1.4375 -1.5625 4.546875q2.5625 0 3.765625 -0.109375q3.875 -0.484375 3.875 -3.046875q0 -1.15625 -0.828125 -2.0q-0.8125 -0.84375 -2.046875 -0.84375zm10.712479 -2.46875q0.359375 -0.046875 1.8125 -0.046875q-0.078125 -2.359375 -0.25 -4.046875q0.84375 -0.15625 1.96875 -0.15625q2.75 0 2.75 1.484375q0 0.953125 -0.109375 2.765625q4.3125 0 6.0 -0.25q0.234375 0.4375 0.234375 1.25q0 1.078125 -0.484375 1.453125q-0.46875 0.375 -1.515625 0.421875q-1.203125 0.03125 -4.3125 0.03125q-0.09375 3.765625 -0.09375 8.125q0 1.28125 0.078125 2.125q0.09375 0.84375 0.375 1.6875q0.28125 0.828125 0.828125 1.25q0.5625 0.421875 1.453125 0.421875q1.234375 0 2.546875 -1.40625q1.046875 1.15625 1.046875 1.96875q0 1.15625 -1.1875 1.71875q-1.171875 0.5625 -2.65625 0.5625q-6.671875 0 -6.671875 -7.28125q0 -1.890625 0.015625 -5.21875q0.015625 -3.34375 0.015625 -3.984375q-2.5625 0.15625 -3.640625 0.3125q-0.15625 -0.4375 -0.15625 -1.3125q0 -1.046875 0.453125 -1.40625q0.46875 -0.359375 1.5 -0.46875zm28.24562 9.953125q0 -3.203125 -1.34375 -5.34375q-1.328125 -2.140625 -3.609375 -2.140625q-2.328125 0 -3.609375 1.765625q-1.28125 1.765625 -1.28125 4.671875q0 3.25 1.296875 5.375q1.3125 2.109375 3.59375 2.109375q2.359375 0 3.65625 -1.75q1.296875 -1.765625 1.296875 -4.6875zm-4.953125 9.40625q-4.171875 0 -6.71875 -2.703125q-2.53125 -2.703125 -2.53125 -7.21875q0 -4.53125 2.53125 -7.203125q2.546875 -2.6875 6.71875 -2.6875q4.1875 0 6.75 2.6875q2.5625 2.671875 2.5625 7.203125q0 4.515625 -2.5625 7.21875q-2.5625 2.703125 -6.75 2.703125z" fill-rule="nonzero"/></g></svg>