<svg width="196" height="58" viewBox="0 0 196.0 720.0" fill="none" stroke="none" stroke-linecap="square" stroke-miterlimit="10" xmlns:xlink="http://www.w3.org/1999/xlink" xmlns="http://www.w3.org/2000/svg"><clipPath id="p.0"><path d="m0 0l960.0 0l0 720.0l-960.0 0l0 -720.0z" clip-rule="nonzero"/></clipPath><g clip-path="url(#p.0)"><path fill="#000000" fill-opacity="0.0" d="m0 0l960.0 0l0 720.0l-960.0 0z" fill-rule="evenodd"/><path fill="#1d90c5" d="m0.0131233595 135.97375l245.19685 0l0 67.87401l-245.19685 0z" fill-rule="evenodd"/><path fill="#ffffff" d="m71.96625 172.42062q-0.59375 -1.640625 -1.171875 -3.421875q-0.578125 -1.78125 -1.21875 -3.8125q-0.640625 -2.046875 -0.875 -2.8125q-1.921875 6.046875 -3.53125 10.0q2.5625 0.078125 3.921875 0.078125q2.078125 0 2.875 -0.03125zm-3.71875 3.0q-1.03125 0 -4.3125 -0.09375q-2.609375 6.6875 -3.203125 8.890625q-3.5625 -0.40625 -3.5625 -1.640625q0 -0.5625 1.703125 -4.53125q1.703125 -3.984375 4.140625 -10.140625q2.4375 -6.171875 3.84375 -10.9375q0.796875 -0.109375 2.078125 -0.109375q1.03125 0 1.609375 0.421875q0.59375 0.40625 1.03125 1.6875q3.078125 9.609375 4.484375 13.203125q3.0 7.796875 4.515625 10.796875q-1.515625 0.8125 -2.5625 0.8125q-1.6875 0 -2.3125 -1.09375q-0.484375 -1.234375 -1.34375 -3.65625q-0.859375 -2.421875 -1.34375 -3.703125q-3.921875 0.09375 -4.765625 0.09375zm22.373108 -8.53125q-1.84375 0 -4.203125 1.796875q0.03125 1.53125 0.046875 6.609375q0.03125 5.078125 0.265625 8.0q-1.078125 0.15625 -2.0 0.15625q-2.59375 0 -2.59375 -1.59375q0 -0.28125 0.046875 -1.953125q0.0625 -1.6875 0.109375 -5.125q0.046875 -3.453125 0.046875 -7.96875q0 -9.4375 -0.359375 -12.953125q1.109375 -0.203125 2.078125 -0.203125q2.828125 0 2.828125 2.203125q0 0.359375 -0.09375 1.703125q-0.09375 1.328125 -0.21875 3.546875q-0.125 2.21875 -0.125 4.703125q2.640625 -1.84375 5.359375 -1.84375q2.8125 0 4.265625 1.5q1.453125 1.5 1.453125 3.703125q0 2.28125 -1.5 4.125q-1.5 1.84375 -4.140625 2.28125q1.484375 2.5625 2.890625 3.953125q1.15625 1.125 1.953125 1.125q0.796875 0 1.5625 -0.234375q0.4375 1.0 0.4375 1.515625q0 0.921875 -0.984375 1.390625q-0.96875 0.453125 -2.40625 0.453125q-1.640625 0 -3.125 -1.6875q-2.125 -2.4375 -4.125 -6.953125q-0.671875 -0.28125 -0.671875 -1.078125q0 -0.53125 0.28125 -1.28125q0.828125 0.234375 1.796875 0.234375q1.75 0 2.765625 -1.03125q1.03125 -1.046875 1.03125 -2.40625q0 -1.125 -0.703125 -1.90625q-0.703125 -0.78125 -1.96875 -0.78125zm10.985611 -2.46875q0.359375 -0.046875 1.8125 -0.046875q-0.078125 -2.359375 -0.25 -4.046875q0.84375 -0.15625 1.96875 -0.15625q2.75 0 2.75 1.484375q0 0.953125 -0.109375 2.765625q4.3125 0 6.0 -0.25q0.234375 0.4375 0.234375 1.25q0 1.078125 -0.484375 1.453125q-0.46875 0.375 -1.515625 0.421875q-1.203125 0.03125 -4.3125 0.03125q-0.09375 3.765625 -0.09375 8.125q0 1.28125 0.078125 2.125q0.09375 0.84375 0.375 1.6875q0.28125 0.828125 0.828125 1.25q0.5625 0.421875 1.453125 0.421875q1.234375 0 2.546875 -1.40625q1.046875 1.15625 1.046875 1.96875q0 1.15625 -1.1875 1.71875q-1.171875 0.5625 -2.65625 0.5625q-6.671875 0 -6.671875 -7.28125q0 -1.890625 0.015625 -5.21875q0.015625 -3.34375 0.015625 -3.984375q-2.5625 0.15625 -3.640625 0.3125q-0.15625 -0.4375 -0.15625 -1.3125q0 -1.046875 0.453125 -1.40625q0.46875 -0.359375 1.5 -0.46875zm17.56749 -0.171875q2.875 0 2.875 2.125q0 0.234375 -0.125 1.625q-0.109375 1.375 -0.21875 3.421875q-0.09375 2.03125 -0.09375 3.875q0 5.359375 1.046875 7.796875q-1.0 0.4375 -2.28125 0.4375q-1.765625 0 -2.390625 -0.71875q-0.609375 -0.71875 -0.609375 -2.4375q0 -0.640625 0.03125 -3.09375q0.046875 -2.46875 0.046875 -3.78125q0 -5.8125 -0.359375 -9.078125q0.953125 -0.171875 2.078125 -0.171875zm0.203125 -1.671875q-1.203125 0 -2.046875 -0.796875q-0.84375 -0.8125 -0.84375 -2.046875q0 -1.203125 0.875 -2.015625q0.890625 -0.828125 2.09375 -0.828125q1.15625 0 2.0 0.828125q0.84375 0.8125 0.84375 2.015625q0 1.203125 -0.890625 2.03125q-0.875 0.8125 -2.03125 0.8125zm20.319366 10.875q0 -3.3125 -1.1875 -4.9375q-1.171875 -1.625 -2.9375 -1.625q-2.3125 0 -4.3125 2.0q0.03125 2.40625 0.03125 5.328125q0 2.71875 -0.109375 4.671875q1.90625 1.921875 4.234375 1.921875q2.15625 0 3.21875 -2.15625q1.0625 -2.15625 1.0625 -5.203125zm-2.6875 -9.484375q3.125 0 5.078125 2.34375q1.96875 2.34375 1.96875 7.015625q0 4.40625 -2.328125 7.4375q-2.3125 3.015625 -6.671875 3.015625q-4.765625 0 -8.15625 -2.8125q0.28125 -2.359375 0.28125 -8.515625q0 -3.5625 -0.203125 -10.34375q-0.203125 -6.78125 -0.4375 -8.296875q0.75 -0.15625 2.109375 -0.15625q2.796875 0 2.796875 2.15625q0 0.484375 -0.125 3.484375q-0.109375 3.0 -0.109375 6.765625q2.5625 -2.09375 5.796875 -2.09375zm17.286224 11.53125q-1.078125 0 -2.921875 -0.078125q0.40625 2.828125 1.8125 4.15625q1.421875 1.3125 3.5 1.3125q1.09375 0 2.25 -0.546875q1.15625 -0.5625 1.71875 -1.609375q1.953125 1.046875 1.953125 2.234375q0 1.359375 -1.875 2.09375q-1.875 0.71875 -4.203125 0.71875q-3.75 0 -6.703125 -2.484375q-2.9375 -2.484375 -2.9375 -7.15625q0 -4.921875 2.8125 -7.546875q2.828125 -2.625 6.671875 -2.625q3.078125 0 4.96875 1.6875q1.90625 1.671875 1.90625 4.0q0 1.875 -0.703125 3.09375q-0.6875 1.21875 -2.046875 1.78125q-1.359375 0.5625 -2.765625 0.765625q-1.40625 0.203125 -3.4375 0.203125zm1.71875 -8.609375q-1.875 0 -3.203125 1.453125q-1.3125 1.4375 -1.5625 4.546875q2.5625 0 3.765625 -0.109375q3.875 -0.484375 3.875 -3.046875q0 -1.15625 -0.828125 -2.0q-0.8125 -0.84375 -2.046875 -0.84375zm10.712479 -2.46875q0.359375 -0.046875 1.8125 -0.046875q-0.078125 -2.359375 -0.25 -4.046875q0.84375 -0.15625 1.96875 -0.15625q2.75 0 2.75 1.484375q0 0.953125 -0.109375 2.765625q4.3125 0 6.0 -0.25q0.234375 0.4375 0.234375 1.25q0 1.078125 -0.484375 1.453125q-0.46875 0.375 -1.515625 0.421875q-1.203125 0.03125 -4.3125 0.03125q-0.09375 3.765625 -0.09375 8.125q0 1.28125 0.078125 2.125q0.09375 0.84375 0.375 1.6875q0.28125 0.828125 0.828125 1.25q0.5625 0.421875 1.453125 0.421875q1.234375 0 2.546875 -1.40625q1.046875 1.15625 1.046875 1.96875q0 1.15625 -1.1875 1.71875q-1.171875 0.5625 -2.65625 0.5625q-6.671875 0 -6.671875 -7.28125q0 -1.890625 0.015625 -5.21875q0.015625 -3.34375 0.015625 -3.984375q-2.5625 0.15625 -3.640625 0.3125q-0.15625 -0.4375 -0.15625 -1.3125q0 -1.046875 0.453125 -1.40625q0.46875 -0.359375 1.5 -0.46875zm28.24562 9.953125q0 -3.203125 -1.34375 -5.34375q-1.328125 -2.140625 -3.609375 -2.140625q-2.328125 0 -3.609375 1.765625q-1.28125 1.765625 -1.28125 4.671875q0 3.25 1.296875 5.375q1.3125 2.109375 3.59375 2.109375q2.359375 0 3.65625 -1.75q1.296875 -1.765625 1.296875 -4.6875zm-4.953125 9.40625q-4.171875 0 -6.71875 -2.703125q-2.53125 -2.703125 -2.53125 -7.21875q0 -4.53125 2.53125 -7.203125q2.546875 -2.6875 6.71875 -2.6875q4.1875 0 6.75 2.6875q2.5625 2.671875 2.5625 7.203125q0 4.515625 -2.5625 7.21875q-2.5625 2.703125 -6.75 2.703125z" fill-rule="nonzero"/></g></svg>
<svg width="196" height="58" viewBox="0 0 196 58" xmlns="http://www.w3.org/2000/svg"><path d="M12.3 45c.3 0 .42-.36.18-.48-.72-.18-1.74-.84-1.74-2.46 0-.42.06-.9.18-1.5l.48-1.5h9.84l.48 1.5c.12.6.24 1.08.24 1.5 0 1.62-1.08 2.28-1.8 2.46-.24.06-.24.48.18.48h17.04c.3 0 .42-.36.24-.48-.9-.48-2.1-1.56-2.76-3.84l-.12-.42C31.5 29.7 28.5 19.8 25.26 9.3c-.18-.66-.24-1.14-.24-1.56 0-.84.3-1.26.6-1.5.24-.24.12-.54-.18-.54H12v.06c-.36 0-.42.24-.18.48.3.24.6.66.6 1.5 0 .36-.06.9-.24 1.5L3.12 40.2C2.4 42.72 1.2 43.98.24 44.52c-.18.12-.06.48.24.48H12.3zm7.02-12.24H13.2l3-10.2 3.12 10.2zm37.993 12.3c.24-.06.36-.36.18-.48-.54-.48-1.2-1.38-1.38-2.94V6.12c0-2.04.84-3.66 1.5-4.62.12-.18-.06-.36-.24-.24-3.12 1.74-8.16 2.82-12.48 2.82-.9 0-1.8 0-2.64-.12-.12 0-.18.12-.12.24.6.48 1.38 1.68 1.38 4.32v32.7c-.06 1.86-.84 2.82-1.44 3.36-.18.12-.06.48.18.48h15.06zm20.654 12.36c4.8 0 9.6-1.32 12.78-3.18 6.66-3.84 7.92-10.44 7.98-16.38V16.98c0-2.04.84-3.6 1.44-4.5.12-.18-.06-.36-.24-.24-3.12 1.74-8.16 2.88-12.48 2.88-.9 0-1.8-.06-2.64-.18-.12 0-.24.18-.12.24.6.48 1.32 1.68 1.38 4.38 0 4.2-.06 8.46-.06 12.54 0 3.42-.3 6.6-4.26 6.6-.3 0-.66-.06-1.02-.06-4.32-.84-4.74-5.76-4.74-13.5v-6.36c.12-1.8.84-2.82 1.44-3.3.18-.18.06-.48-.18-.48h-15.06c-.12 0-.24.12-.24.3 0 .06 0 .12.06.18.54.48 1.26 1.32 1.38 2.88v7.8c0 10.02.66 14.76 8.04 18.6 2.58.9 4.86 1.32 6.84 1.32 3.42 0 6-1.26 7.8-3.42v.18c0 1.62-.72 5.58-6.12 6.6-.96.18-1.92.3-2.88.3-3.78 0-7.14-1.32-8.64-3.24-.24-.36-.84-.3-1.08.06l-2.46 4.08c-.36.6-.24 1.32.18 1.8 3.18 3.6 8.04 4.98 12.9 4.98zM129.88 45c.36 0 .48-.3.24-.42-.9-.3-1.68-1.38-1.68-2.52 0-.24.06-.48.12-.72l6.12-22.38c.36-1.8.84-2.82 1.38-3.36.24-.12.12-.42-.12-.42l-10.38-.06c-.54 0-.66.3-.48.42.6.48 1.38 1.08 1.38 2.58v.36c-.3 4.32-2.22 14.7-4.38 17.94-2.58-6.12-3.18-13.62-3.18-15.9v-.48c.06-2.76.6-4.2 1.2-4.68.06-.12 0-.24-.12-.24h-15.24c-.18 0-.36.12-.18.3.48.3 1.14.6 1.56 2.22l6.36 23.58c.06.24.06.48.06.66 0 1.38-.96 2.34-1.5 2.7-.18.12-.06.42.18.42h18.66zm26.293 0c.3 0 .42-.36.18-.48-.66-.6-1.44-1.68-1.56-3.66V17.22c.06-1.98.66-2.46 1.14-4.74.24-.9.36-1.8.36-2.7 0-3.12-1.5-5.7-3.48-7.2-1.38-.96-2.7-1.68-5.28-1.74-5.4.3-7.92 3.72-7.92 6.9.12 3 2.64 5.16 6.48 5.16.36 0 .72 0 1.08-.06 3.06-.3 5.46-1.86 6.72-4.08-.54 4.02-4.14 6.72-9 6.72-1.38 0-2.88-.18-4.38-.66-.18-.06-.24.18-.12.3.6.54 1.44 1.8 1.44 4.74l.06 21.48c-.18 1.68-.96 2.64-1.56 3.18-.18.12-.06.48.18.48h15.66zm16.214.72c.66 0 1.26-.06 1.92-.06 2.94-.36 5.34-2.04 7.08-3.9-.18 1.44-.84 2.28-1.38 2.76-.18.18-.06.48.18.48h15.06c.24 0 .36-.3.18-.48-.6-.54-1.38-1.5-1.44-3.3V16.8c0-2.1.84-3.72 1.44-4.68.12-.12-.06-.36-.24-.24-3.06 1.74-8.1 2.82-12.42 2.82-.9 0-1.8-.06-2.64-.12-.12 0-.18.12-.06.24.36.36.9 1.02 1.14 2.34-1.2-1.2-2.76-2.34-4.92-2.82-.78-.12-1.5-.18-2.22-.18-3.72 0-6.96 1.56-9.3 3.72-3.24 2.88-5.34 7.08-5.58 12.42v.72c0 4.38 1.62 8.46 4.38 11.22 2.64 2.7 5.4 3.48 8.82 3.48zm3.36-6.9h-.54c-3.84-.36-5.76-4.44-5.76-8.46 0-4.2 2.1-8.34 6.48-8.4 3 0 5.46 2.64 5.46 6.72v3c0 3.72-2.16 7.14-5.64 7.14z" fill="#2C343C" fill-rule="nonzero"/></svg>